<svg width="550" height="122" viewBox="0 0 550 122" fill="none" xmlns="http://www.w3.org/2000/svg">
<path d="M71.0623 68.4537C63.1993 97.8711 44.1044 118.319 28.4126 114.124C12.7208 109.93 6.37425 82.6824 14.2372 53.2649C22.1002 23.8475 41.1951 3.40008 56.8869 7.59433C72.5787 11.7886 78.9252 39.0362 71.0623 68.4537Z" fill="#B8FF00"/>
<path d="M116.706 68.4539C108.843 97.8713 89.748 118.319 74.0561 114.125C58.3643 109.93 52.0178 82.6826 59.8808 53.2652C67.7437 23.8477 86.8386 3.40031 102.53 7.59456C118.222 11.7888 124.569 39.0365 116.706 68.4539Z" fill="#B8FF00"/>
<path d="M162.421 68.4539C154.558 97.8713 135.463 118.319 119.771 114.125C104.08 109.93 97.7331 82.6826 105.596 53.2652C113.459 23.8477 132.554 3.40031 148.246 7.59456C163.938 11.7888 170.284 39.0365 162.421 68.4539Z" fill="#B8FF00"/>
<path d="M273.405 114.724H169.519L196.101 6.9705H234.295L215.504 83.1677H281.197L273.405 114.724Z" fill="#B8FF00"/>
<path d="M411.851 114.724H373.505L371.671 100.87H324.922L316.367 114.724H273.743L346.769 6.9705H391.99L411.851 114.724ZM343.255 71.6227H368.005L366.477 59.7698C365.56 52.7914 365.102 47.1985 365.102 42.991C365.102 38.5782 365.611 34.4733 366.63 30.6763L366.783 30.0606H363.727L363.574 30.6763C362.352 35.4996 360.824 40.0149 358.991 44.2225C357.26 48.3274 354.459 53.5098 350.588 59.7698L343.255 71.6227Z" fill="#B8FF00"/>
<path d="M522.654 60.8473C529.478 61.8735 534.621 64.4391 538.084 68.544C541.649 72.5463 543.431 77.4721 543.431 83.3216C543.431 88.7606 542.107 93.8917 539.459 98.715C536.811 103.436 532.737 107.284 527.237 110.26C521.737 113.236 514.913 114.724 506.765 114.724H412.045L438.628 6.9705H514.557C526.575 6.9705 535.487 9.17689 541.292 13.5897C547.098 18.0024 550 23.9032 550 31.292C550 36.3205 548.829 40.8359 546.486 44.8382C544.144 48.7379 540.936 51.8678 536.862 54.2282C532.788 56.4859 528.306 57.666 523.417 57.7686L522.654 60.8473ZM504.015 47.7629C506.46 47.7629 508.344 47.1472 509.668 45.9157C511.094 44.5816 511.807 42.8371 511.807 40.682C511.807 39.2453 511.196 38.0138 509.973 36.9876C508.751 35.9614 507.02 35.4482 504.779 35.4482H468.266L465.21 47.7629H504.015ZM496.988 86.2464C499.636 86.2464 501.673 85.4767 503.099 83.9374C504.524 82.398 505.237 80.5508 505.237 78.3958C505.237 76.6512 504.575 75.2145 503.251 74.0856C501.927 72.9568 499.89 72.3923 497.14 72.3923H459.099L455.738 86.2464H496.988Z" fill="#B8FF00"/>
</svg>
